<svg version="1.1" xmlns="http://www.w3.org/2000/svg" xmlns:xlink="http://www.w3.org/1999/xlink" width="844" height="285"><defs/><g transform="translate(-15,-30)"><g><path fill="white" stroke="#505050" paint-order="fill stroke markers" d=" M 493 79 L 493 307 Q 493 315 501 315 L 691 315 Q 699 315 699 307 L 699 79 Q 699 71 691 71 L 501 71 Q 493 71 493 79" stroke-miterlimit="10" stroke-width="0.5" stroke-dasharray=""/><path fill="none" stroke="#505050" paint-order="fill stroke markers" d=" M 493 91 L 699 91" stroke-miterlimit="10" stroke-width="0.5" stroke-dasharray=""/><text fill="#505050" stroke="none" font-family="monospace" font-size="14px" font-style="normal" font-weight="normal" text-decoration="normal" x="501" y="85" text-anchor="start" dominant-baseline="alphabetic">New State</text><path fill="#505050" stroke="#505050" paint-order="fill stroke markers" d=" M 535 109 A 8 8 0 1 1 534.9999960000004 108.99200000133332" stroke-miterlimit="10" stroke-width="0.25" stroke-dasharray=""/><path fill="white" stroke="#505050" paint-order="fill stroke markers" d=" M 591 255 L 591 299 Q 591 307 599 307 L 683 307 Q 691 307 691 299 L 691 255 Q 691 247 683 247 L 599 247 Q 591 247 591 255" stroke-miterlimit="10" stroke-width="0.5" stroke-dasharray=""/><path fill="none" stroke="#505050" paint-order="fill stroke markers" d=" M 591 267 L 691 267" stroke-miterlimit="10" stroke-width="0.5" stroke-dasharray=""/><text fill="#505050" stroke="none" font-family="monospace" font-size="14px" font-style="normal" font-weight="normal" text-decoration="normal" x="599" y="261" text-anchor="start" dominant-baseline="alphabetic">New State</text><path fill="white" stroke="#505050" paint-order="fill stroke markers" d=" M 508 143 L 508 187 Q 508 195 516 195 L 600 195 Q 608 195 608 187 L 608 143 Q 608 135 600 135 L 516 135 Q 508 135 508 143" stroke-miterlimit="10" stroke-width="0.5" stroke-dasharray=""/><path fill="none" stroke="#505050" paint-order="fill stroke markers" d=" M 508 155 L 608 155" stroke-miterlimit="10" stroke-width="0.5" stroke-dasharray=""/><text fill="#505050" stroke="none" font-family="monospace" font-size="14px" font-style="normal" font-weight="normal" text-decoration="normal" x="516" y="149" text-anchor="start" dominant-baseline="alphabetic">New State</text><path fill="white" stroke="#505050" paint-order="fill stroke markers" d=" M 759 101 L 759 145 Q 759 153 767 153 L 851 153 Q 859 153 859 145 L 859 101 Q 859 93 851 93 L 767 93 Q 759 93 759 101" stroke-miterlimit="10" stroke-width="0.5" stroke-dasharray=""/><path fill="none" stroke="#505050" paint-order="fill stroke markers" d=" M 759 113 L 859 113" stroke-miterlimit="10" stroke-width="0.5" stroke-dasharray=""/><text fill="#505050" stroke="none" font-family="monospace" font-size="14px" font-style="normal" font-weight="normal" text-decoration="normal" x="767" y="107" text-anchor="start" dominant-baseline="alphabetic">New State</text><path fill="none" stroke="#505050" paint-order="fill stroke markers" d=" M 567.3958028140584 195 C 567.3958028140584 227 559 273.4979418417628 591 273.4979418417628 M 584.072 269.4979418417628 L 591 273.4979418417628 L 584.072 277.4979418417628" stroke-miterlimit="10" stroke-dasharray=""/><path fill="none" stroke="#505050" paint-order="fill stroke markers" d=" M 632.623386936859 247 C 632.623386936859 215 640 169.30937465403045 608 169.30937465403045 M 614.928 173.30937465403045 L 608 169.30937465403045 L 614.928 165.30937465403045" stroke-miterlimit="10" stroke-dasharray=""/><path fill="none" stroke="#505050" paint-order="fill stroke markers" d=" M 525.990770244999 116.93608564102105 C 524.8508053905008 125.90020770363522 526.5520321475207 125.96368414546409 526.5520321475207 135 M 530.5520321475207 128.072 L 526.5520321475207 135 L 522.5520321475207 128.072" stroke-miterlimit="10" stroke-dasharray=""/><path fill="none" stroke="#505050" paint-order="fill stroke markers" d=" M 699 129.5824148889061 C 729.0073598901896 129.5824148889061 728.9926401098104 128.25328347424687 759 128.25328347424687 M 752.072 124.25328347424687 L 759 128.25328347424687 L 752.072 132.25328347424687" stroke-miterlimit="10" stroke-dasharray=""/></g></g></svg>